<?xml version="1.0" encoding="UTF-8" standalone="yes"?>
<!DOCTYPE svg PUBLIC "-//W3C//DTD SVG 1.1//EN" "http://www.w3.org/Graphics/SVG/1.1/DTD/svg11.dtd">

<svg width="359" height="147" viewBox="0 0 359 147" xmlns="http://www.w3.org/2000/svg" xmlns:xlink="http://www.w3.org/1999/xlink" version="1.1" baseProfile="full">
    <g transform="scale(1,-1) translate(0,-147)">
        <path d="M 1.000000 1.000000 L 360.000000 1.000000 L 360.000000 148.000000 L 1.000000 148.000000 Z" transform="scale(1.000000,1.000000) translate(-1.000000,-1.000000)" fill="#ffffff" opacity="1.000000"></path>
        <path d="M 40.870000 16.300000 Q 40.870000 8.830000 35.110000 4.780000 Q 29.710000 1.000000 20.980000 1.000000 Q 7.750000 1.000000 1.000000 7.750000 L 8.650000 15.400000 Q 13.060000 10.990000 21.160000 10.990000 Q 29.440000 10.990000 29.440000 15.850000 Q 29.440000 19.720000 24.490000 20.170000 L 17.110000 20.890000 Q 3.430000 22.240000 3.430000 34.030000 Q 3.430000 41.050000 8.920000 45.190000 Q 13.960000 48.970000 21.520000 48.970000 Q 33.580000 48.970000 39.430000 43.480000 L 32.230000 36.190000 Q 28.720000 39.340000 21.340000 39.340000 Q 14.680000 39.340000 14.680000 34.840000 Q 14.680000 31.240000 19.540000 30.790000 L 26.920000 30.070000 Q 40.870000 28.720000 40.870000 16.300000 Z M 77.590000 1.540000 L 77.590000 30.160000 Q 77.590000 38.440000 69.940000 38.440000 Q 62.380000 38.440000 62.380000 30.160000 L 62.380000 1.540000 L 50.680000 1.540000 L 50.680000 65.620000 L 62.380000 65.620000 L 62.380000 44.110000 Q 67.150000 48.970000 73.630000 48.970000 Q 81.100000 48.970000 85.330000 44.110000 Q 89.290000 39.520000 89.290000 31.870000 L 89.290000 1.540000 Z" transform="scale(1.000000,1.000000) translate(229.060000,40.460000)" fill="#4f3180" opacity="1.000000"></path>
        <path d="M 9.460000 15.220000 Q 13.780000 10.810000 19.990000 10.810000 Q 24.490000 10.810000 27.190000 13.510000 Q 29.800000 16.030000 30.070000 20.260000 L 30.160000 20.260000 L 30.160000 20.710000 Q 30.160000 20.800000 30.160000 20.980000 Q 30.160000 21.070000 30.160000 21.160000 L 30.160000 21.160000 L 30.160000 29.170000 L 30.160000 29.170000 Q 30.070000 31.870000 29.080000 34.120000 Q 26.920000 38.980000 21.340000 38.980000 Q 15.760000 38.980000 13.510000 34.120000 Q 12.610000 31.870000 12.430000 29.170000 L 22.690000 29.170000 L 22.690000 21.160000 L 1.000000 21.160000 L 1.000000 26.380000 Q 1.000000 36.190000 6.310000 42.310000 Q 11.800000 48.610000 21.340000 48.610000 Q 30.520000 48.610000 36.010000 42.400000 Q 41.590000 36.010000 41.590000 24.850000 Q 41.590000 1.000000 20.080000 1.000000 Q 9.730000 1.000000 2.350000 8.290000 Z M 37.900000 14.950000 L 37.900000 14.950000 Q 37.900000 15.490000 37.900000 15.400000 Z" transform="scale(1.000000,1.000000) translate(181.470000,41.000000)" fill="#521451" opacity="1.000000"></path>
        <path d="M 33.130000 15.220000 Q 28.810000 10.810000 22.600000 10.810000 Q 18.100000 10.810000 15.400000 13.510000 Q 12.790000 16.030000 12.520000 20.260000 L 12.430000 20.260000 L 12.430000 20.710000 Q 12.430000 20.800000 12.430000 20.980000 Q 12.430000 21.070000 12.430000 21.160000 L 12.430000 21.160000 L 12.430000 29.170000 L 12.430000 29.170000 Q 12.520000 31.870000 13.510000 34.120000 Q 15.670000 38.980000 21.250000 38.980000 Q 26.830000 38.980000 29.080000 34.120000 Q 29.980000 31.870000 30.160000 29.170000 L 19.900000 29.170000 L 19.900000 21.160000 L 41.590000 21.160000 L 41.590000 26.380000 Q 41.590000 36.190000 36.280000 42.310000 Q 30.790000 48.610000 21.250000 48.610000 Q 12.070000 48.610000 6.580000 42.400000 Q 1.000000 36.010000 1.000000 24.850000 Q 1.000000 1.000000 22.510000 1.000000 Q 32.860000 1.000000 40.240000 8.290000 Z M 4.690000 14.950000 L 4.690000 14.950000 Q 4.690000 15.490000 4.690000 15.400000 Z" transform="scale(1.000000,1.000000) translate(139.880000,41.000000)" fill="#521451" opacity="1.000000"></path>
        <path d="M 48.790000 27.820000 Q 48.790000 14.770000 42.670000 8.290000 Q 35.470000 1.000000 24.580000 1.000000 Q 14.320000 1.000000 7.300000 8.020000 Q 3.160000 12.160000 2.080000 17.650000 Q 1.000000 23.050000 1.000000 33.580000 Q 1.000000 44.110000 2.080000 49.510000 Q 3.160000 55.000000 7.300000 59.140000 Q 14.320000 66.160000 24.580000 66.160000 Q 34.930000 66.160000 41.500000 60.130000 Q 47.350000 54.640000 48.700000 45.640000 L 36.100000 45.640000 Q 33.760000 55.000000 24.580000 55.000000 Q 19.540000 55.000000 16.570000 51.580000 Q 13.510000 47.710000 13.510000 33.580000 Q 13.510000 19.090000 16.570000 15.490000 Q 19.360000 12.160000 24.580000 12.160000 Q 30.160000 12.160000 33.490000 15.760000 Q 36.370000 19.090000 36.370000 24.310000 L 36.370000 26.740000 L 24.580000 26.740000 L 24.580000 37.180000 L 48.790000 37.180000 Z M 85.060000 35.650000 Q 82.270000 38.440000 78.850000 38.440000 Q 75.880000 38.440000 73.720000 36.370000 Q 71.290000 33.940000 71.290000 29.800000 L 71.290000 1.540000 L 59.590000 1.540000 L 59.590000 48.430000 L 71.020000 48.430000 L 71.020000 43.930000 Q 75.250000 48.970000 82.810000 48.970000 Q 89.470000 48.970000 93.880000 44.560000 Z" transform="scale(1.000000,1.000000) translate(40.000000,40.460000)" fill="#4f3180" opacity="1.000000"></path>
    </g>
</svg>